<mxfile host="65bd71144e">
    <diagram id="vLqpbj-ZOD2Gah0AGS2J" name="Page-1">
        <mxGraphModel dx="8230" dy="6335" grid="1" gridSize="10" guides="1" tooltips="1" connect="1" arrows="1" fold="1" page="1" pageScale="1" pageWidth="850" pageHeight="1100" math="0" shadow="0">
            <root>
                <mxCell id="0"/>
                <mxCell id="1" parent="0"/>
                <mxCell id="45" style="edgeStyle=none;html=1;exitX=0.5;exitY=0;exitDx=0;exitDy=0;entryX=0.5;entryY=1;entryDx=0;entryDy=0;" parent="1" source="15" target="43" edge="1">
                    <mxGeometry relative="1" as="geometry"/>
                </mxCell>
                <mxCell id="48" style="edgeStyle=none;html=1;exitX=0.5;exitY=0;exitDx=0;exitDy=0;entryX=0.5;entryY=1;entryDx=0;entryDy=0;" parent="1" source="15" target="42" edge="1">
                    <mxGeometry relative="1" as="geometry"/>
                </mxCell>
                <mxCell id="49" style="edgeStyle=none;html=1;exitX=0;exitY=0;exitDx=0;exitDy=0;entryX=0.5;entryY=1;entryDx=0;entryDy=0;" parent="1" source="15" target="41" edge="1">
                    <mxGeometry relative="1" as="geometry"/>
                </mxCell>
                <mxCell id="50" style="edgeStyle=none;html=1;exitX=0;exitY=0.5;exitDx=0;exitDy=0;entryX=0.5;entryY=1;entryDx=0;entryDy=0;" parent="1" source="15" target="40" edge="1">
                    <mxGeometry relative="1" as="geometry"/>
                </mxCell>
                <mxCell id="51" style="edgeStyle=none;html=1;exitX=0;exitY=0.5;exitDx=0;exitDy=0;entryX=0.5;entryY=1;entryDx=0;entryDy=0;" parent="1" source="15" target="39" edge="1">
                    <mxGeometry relative="1" as="geometry"/>
                </mxCell>
                <mxCell id="52" style="edgeStyle=none;html=1;exitX=0;exitY=0.5;exitDx=0;exitDy=0;entryX=0.5;entryY=1;entryDx=0;entryDy=0;" parent="1" source="15" target="38" edge="1">
                    <mxGeometry relative="1" as="geometry"/>
                </mxCell>
                <mxCell id="53" style="edgeStyle=none;html=1;exitX=0;exitY=0.5;exitDx=0;exitDy=0;entryX=0.5;entryY=1;entryDx=0;entryDy=0;" parent="1" source="15" target="37" edge="1">
                    <mxGeometry relative="1" as="geometry"/>
                </mxCell>
                <mxCell id="15" value="" style="ellipse;whiteSpace=wrap;html=1;aspect=fixed;" parent="1" vertex="1">
                    <mxGeometry x="-210" y="475" width="40" height="40" as="geometry"/>
                </mxCell>
                <mxCell id="99" style="edgeStyle=none;html=1;exitX=0;exitY=0.5;exitDx=0;exitDy=0;entryX=0.5;entryY=1;entryDx=0;entryDy=0;" parent="1" source="16" target="95" edge="1">
                    <mxGeometry relative="1" as="geometry"/>
                </mxCell>
                <mxCell id="100" style="edgeStyle=none;html=1;exitX=0;exitY=0;exitDx=0;exitDy=0;entryX=1;entryY=1;entryDx=0;entryDy=0;" parent="1" source="16" target="96" edge="1">
                    <mxGeometry relative="1" as="geometry"/>
                </mxCell>
                <mxCell id="101" style="edgeStyle=none;html=1;exitX=0.5;exitY=0;exitDx=0;exitDy=0;entryX=0.5;entryY=1;entryDx=0;entryDy=0;" parent="1" source="16" target="90" edge="1">
                    <mxGeometry relative="1" as="geometry"/>
                </mxCell>
                <mxCell id="102" style="edgeStyle=none;html=1;exitX=0;exitY=0;exitDx=0;exitDy=0;entryX=0.5;entryY=1;entryDx=0;entryDy=0;" parent="1" source="16" target="91" edge="1">
                    <mxGeometry relative="1" as="geometry"/>
                </mxCell>
                <mxCell id="103" style="edgeStyle=none;html=1;exitX=0.5;exitY=0;exitDx=0;exitDy=0;entryX=0.5;entryY=1;entryDx=0;entryDy=0;" parent="1" source="16" target="92" edge="1">
                    <mxGeometry relative="1" as="geometry"/>
                </mxCell>
                <mxCell id="104" style="edgeStyle=none;html=1;exitX=1;exitY=0;exitDx=0;exitDy=0;entryX=0.5;entryY=1;entryDx=0;entryDy=0;" parent="1" source="16" target="93" edge="1">
                    <mxGeometry relative="1" as="geometry"/>
                </mxCell>
                <mxCell id="105" style="edgeStyle=none;html=1;exitX=1;exitY=0;exitDx=0;exitDy=0;entryX=1;entryY=1;entryDx=0;entryDy=0;" parent="1" source="16" target="94" edge="1">
                    <mxGeometry relative="1" as="geometry"/>
                </mxCell>
                <mxCell id="16" value="" style="ellipse;whiteSpace=wrap;html=1;aspect=fixed;" parent="1" vertex="1">
                    <mxGeometry x="-105" y="-190" width="40" height="40" as="geometry"/>
                </mxCell>
                <mxCell id="114" style="edgeStyle=none;html=1;exitX=0.5;exitY=0;exitDx=0;exitDy=0;entryX=0.5;entryY=1;entryDx=0;entryDy=0;" parent="1" source="17" target="76" edge="1">
                    <mxGeometry relative="1" as="geometry"/>
                </mxCell>
                <mxCell id="115" style="edgeStyle=none;html=1;exitX=1;exitY=0;exitDx=0;exitDy=0;entryX=0;entryY=1;entryDx=0;entryDy=0;" parent="1" source="17" target="77" edge="1">
                    <mxGeometry relative="1" as="geometry"/>
                </mxCell>
                <mxCell id="116" style="edgeStyle=none;html=1;exitX=1;exitY=0.5;exitDx=0;exitDy=0;entryX=0.5;entryY=1;entryDx=0;entryDy=0;" parent="1" source="17" target="78" edge="1">
                    <mxGeometry relative="1" as="geometry"/>
                </mxCell>
                <mxCell id="117" style="edgeStyle=none;html=1;exitX=1;exitY=0.5;exitDx=0;exitDy=0;entryX=0;entryY=1;entryDx=0;entryDy=0;" parent="1" source="17" target="79" edge="1">
                    <mxGeometry relative="1" as="geometry"/>
                </mxCell>
                <mxCell id="118" style="edgeStyle=none;html=1;exitX=1;exitY=1;exitDx=0;exitDy=0;entryX=0;entryY=1;entryDx=0;entryDy=0;" parent="1" source="17" target="80" edge="1">
                    <mxGeometry relative="1" as="geometry"/>
                </mxCell>
                <mxCell id="119" style="edgeStyle=none;html=1;exitX=0.5;exitY=1;exitDx=0;exitDy=0;entryX=0;entryY=1;entryDx=0;entryDy=0;" parent="1" source="17" target="81" edge="1">
                    <mxGeometry relative="1" as="geometry"/>
                </mxCell>
                <mxCell id="155" style="edgeStyle=none;html=1;exitX=1;exitY=1;exitDx=0;exitDy=0;entryX=0;entryY=1;entryDx=0;entryDy=0;" parent="1" source="17" target="154" edge="1">
                    <mxGeometry relative="1" as="geometry"/>
                </mxCell>
                <mxCell id="17" value="" style="ellipse;whiteSpace=wrap;html=1;aspect=fixed;" parent="1" vertex="1">
                    <mxGeometry x="320" y="-350" width="40" height="40" as="geometry"/>
                </mxCell>
                <mxCell id="107" style="edgeStyle=none;html=1;exitX=1;exitY=1;exitDx=0;exitDy=0;entryX=0;entryY=1;entryDx=0;entryDy=0;" parent="1" source="18" target="88" edge="1">
                    <mxGeometry relative="1" as="geometry"/>
                </mxCell>
                <mxCell id="108" style="edgeStyle=none;html=1;exitX=1;exitY=0.5;exitDx=0;exitDy=0;entryX=0;entryY=0.5;entryDx=0;entryDy=0;" parent="1" source="18" target="87" edge="1">
                    <mxGeometry relative="1" as="geometry"/>
                </mxCell>
                <mxCell id="109" style="edgeStyle=none;html=1;exitX=1;exitY=0;exitDx=0;exitDy=0;entryX=0;entryY=1;entryDx=0;entryDy=0;" parent="1" source="18" target="86" edge="1">
                    <mxGeometry relative="1" as="geometry"/>
                </mxCell>
                <mxCell id="110" style="edgeStyle=none;html=1;exitX=0.5;exitY=0;exitDx=0;exitDy=0;entryX=0.5;entryY=1;entryDx=0;entryDy=0;" parent="1" source="18" target="84" edge="1">
                    <mxGeometry relative="1" as="geometry"/>
                </mxCell>
                <mxCell id="111" style="edgeStyle=none;html=1;exitX=0.5;exitY=0;exitDx=0;exitDy=0;entryX=0;entryY=1;entryDx=0;entryDy=0;" parent="1" source="18" target="83" edge="1">
                    <mxGeometry relative="1" as="geometry"/>
                </mxCell>
                <mxCell id="112" style="edgeStyle=none;html=1;exitX=0.5;exitY=0;exitDx=0;exitDy=0;entryX=0;entryY=1;entryDx=0;entryDy=0;" parent="1" source="18" target="82" edge="1">
                    <mxGeometry relative="1" as="geometry"/>
                </mxCell>
                <mxCell id="113" style="edgeStyle=none;html=1;exitX=1;exitY=0;exitDx=0;exitDy=0;entryX=0;entryY=1;entryDx=0;entryDy=0;" parent="1" source="18" target="85" edge="1">
                    <mxGeometry relative="1" as="geometry"/>
                </mxCell>
                <mxCell id="18" value="" style="ellipse;whiteSpace=wrap;html=1;aspect=fixed;" parent="1" vertex="1">
                    <mxGeometry x="690" y="-20" width="40" height="40" as="geometry"/>
                </mxCell>
                <mxCell id="27" style="edgeStyle=none;html=1;exitX=1;exitY=0;exitDx=0;exitDy=0;entryX=0.5;entryY=1;entryDx=0;entryDy=0;" parent="1" source="21" target="18" edge="1">
                    <mxGeometry relative="1" as="geometry"/>
                </mxCell>
                <mxCell id="29" style="edgeStyle=none;html=1;exitX=0;exitY=0.5;exitDx=0;exitDy=0;entryX=0.5;entryY=1;entryDx=0;entryDy=0;" parent="1" source="21" target="15" edge="1">
                    <mxGeometry relative="1" as="geometry"/>
                </mxCell>
                <mxCell id="30" style="edgeStyle=none;html=1;exitX=0;exitY=0;exitDx=0;exitDy=0;entryX=0.5;entryY=1;entryDx=0;entryDy=0;" parent="1" source="21" target="16" edge="1">
                    <mxGeometry relative="1" as="geometry"/>
                </mxCell>
                <mxCell id="31" style="edgeStyle=none;html=1;exitX=0.5;exitY=0;exitDx=0;exitDy=0;entryX=0.5;entryY=1;entryDx=0;entryDy=0;" parent="1" source="21" target="17" edge="1">
                    <mxGeometry relative="1" as="geometry"/>
                </mxCell>
                <mxCell id="70" style="edgeStyle=none;html=1;exitX=1;exitY=0.5;exitDx=0;exitDy=0;entryX=0;entryY=0.5;entryDx=0;entryDy=0;" parent="1" source="21" target="63" edge="1">
                    <mxGeometry relative="1" as="geometry"/>
                </mxCell>
                <mxCell id="21" value="" style="ellipse;whiteSpace=wrap;html=1;aspect=fixed;" parent="1" vertex="1">
                    <mxGeometry x="290" y="970" width="40" height="40" as="geometry"/>
                </mxCell>
                <mxCell id="32" value="&lt;font style=&quot;font-size: 36px;&quot;&gt;T-rex&lt;/font&gt;" style="text;html=1;align=center;verticalAlign=middle;whiteSpace=wrap;rounded=0;strokeColor=none;" parent="1" vertex="1">
                    <mxGeometry x="-105" y="500" width="170" height="130" as="geometry"/>
                </mxCell>
                <mxCell id="33" value="&lt;font style=&quot;font-size: 36px;&quot;&gt;Stegosaurus&lt;/font&gt;" style="text;html=1;align=center;verticalAlign=middle;whiteSpace=wrap;rounded=0;" parent="1" vertex="1">
                    <mxGeometry x="130" y="170" width="60" height="30" as="geometry"/>
                </mxCell>
                <mxCell id="34" value="&lt;font style=&quot;font-size: 36px;&quot;&gt;Diplodocus&lt;/font&gt;" style="text;html=1;align=center;verticalAlign=middle;whiteSpace=wrap;rounded=0;" parent="1" vertex="1">
                    <mxGeometry x="390" y="170" width="60" height="30" as="geometry"/>
                </mxCell>
                <mxCell id="35" value="&lt;font style=&quot;font-size: 36px;&quot;&gt;Velociraptor&lt;/font&gt;" style="text;html=1;align=center;verticalAlign=middle;whiteSpace=wrap;rounded=0;" parent="1" vertex="1">
                    <mxGeometry x="610" y="215" width="60" height="30" as="geometry"/>
                </mxCell>
                <mxCell id="36" value="&lt;font style=&quot;font-size: 36px;&quot;&gt;Udelartitan&lt;/font&gt;" style="text;html=1;align=center;verticalAlign=middle;whiteSpace=wrap;rounded=0;" parent="1" vertex="1">
                    <mxGeometry x="730" y="795" width="60" height="30" as="geometry"/>
                </mxCell>
                <mxCell id="182" style="edgeStyle=none;html=1;exitX=0;exitY=0.5;exitDx=0;exitDy=0;entryX=1;entryY=0.5;entryDx=0;entryDy=0;" parent="1" source="37" target="175" edge="1">
                    <mxGeometry relative="1" as="geometry"/>
                </mxCell>
                <mxCell id="37" value="" style="ellipse;whiteSpace=wrap;html=1;aspect=fixed;" parent="1" vertex="1">
                    <mxGeometry x="-770" y="630" width="30" height="30" as="geometry"/>
                </mxCell>
                <mxCell id="38" value="" style="ellipse;whiteSpace=wrap;html=1;aspect=fixed;" parent="1" vertex="1">
                    <mxGeometry x="-780" y="415" width="30" height="30" as="geometry"/>
                </mxCell>
                <mxCell id="184" style="edgeStyle=none;html=1;exitX=0;exitY=0.5;exitDx=0;exitDy=0;entryX=1;entryY=0.75;entryDx=0;entryDy=0;" parent="1" source="39" target="177" edge="1">
                    <mxGeometry relative="1" as="geometry"/>
                </mxCell>
                <mxCell id="39" value="" style="ellipse;whiteSpace=wrap;html=1;aspect=fixed;" parent="1" vertex="1">
                    <mxGeometry x="-740" y="245" width="30" height="30" as="geometry"/>
                </mxCell>
                <mxCell id="186" style="edgeStyle=none;html=1;exitX=0;exitY=0;exitDx=0;exitDy=0;entryX=1;entryY=0.75;entryDx=0;entryDy=0;" parent="1" source="40" target="178" edge="1">
                    <mxGeometry relative="1" as="geometry"/>
                </mxCell>
                <mxCell id="40" value="" style="ellipse;whiteSpace=wrap;html=1;aspect=fixed;" parent="1" vertex="1">
                    <mxGeometry x="-480" y="10" width="30" height="30" as="geometry"/>
                </mxCell>
                <mxCell id="187" style="edgeStyle=none;html=1;exitX=0;exitY=0;exitDx=0;exitDy=0;entryX=1;entryY=0.75;entryDx=0;entryDy=0;" parent="1" source="41" target="179" edge="1">
                    <mxGeometry relative="1" as="geometry"/>
                </mxCell>
                <mxCell id="41" value="" style="ellipse;whiteSpace=wrap;html=1;aspect=fixed;" parent="1" vertex="1">
                    <mxGeometry x="-620" y="130" width="30" height="30" as="geometry"/>
                </mxCell>
                <mxCell id="189" style="edgeStyle=none;html=1;exitX=0;exitY=0;exitDx=0;exitDy=0;entryX=0.75;entryY=1;entryDx=0;entryDy=0;" parent="1" source="42" target="180" edge="1">
                    <mxGeometry relative="1" as="geometry"/>
                </mxCell>
                <mxCell id="42" value="" style="ellipse;whiteSpace=wrap;html=1;aspect=fixed;" parent="1" vertex="1">
                    <mxGeometry x="-290" width="30" height="30" as="geometry"/>
                </mxCell>
                <mxCell id="191" style="edgeStyle=none;html=1;exitX=0.5;exitY=0;exitDx=0;exitDy=0;entryX=0.75;entryY=1;entryDx=0;entryDy=0;" parent="1" source="43" target="181" edge="1">
                    <mxGeometry relative="1" as="geometry"/>
                </mxCell>
                <mxCell id="43" value="" style="ellipse;whiteSpace=wrap;html=1;aspect=fixed;" parent="1" vertex="1">
                    <mxGeometry x="-150" y="50" width="30" height="30" as="geometry"/>
                </mxCell>
                <mxCell id="56" style="edgeStyle=none;html=1;exitX=0.5;exitY=0;exitDx=0;exitDy=0;entryX=0.5;entryY=1;entryDx=0;entryDy=0;" parent="1" source="63" target="69" edge="1">
                    <mxGeometry relative="1" as="geometry"/>
                </mxCell>
                <mxCell id="57" style="edgeStyle=none;html=1;exitX=0.5;exitY=0;exitDx=0;exitDy=0;entryX=0.5;entryY=1;entryDx=0;entryDy=0;" parent="1" source="63" target="68" edge="1">
                    <mxGeometry relative="1" as="geometry"/>
                </mxCell>
                <mxCell id="58" style="edgeStyle=none;html=1;exitX=0;exitY=0;exitDx=0;exitDy=0;entryX=0.5;entryY=1;entryDx=0;entryDy=0;" parent="1" source="63" target="67" edge="1">
                    <mxGeometry relative="1" as="geometry"/>
                </mxCell>
                <mxCell id="59" style="edgeStyle=none;html=1;exitX=0;exitY=0.5;exitDx=0;exitDy=0;entryX=0.5;entryY=1;entryDx=0;entryDy=0;" parent="1" source="63" target="66" edge="1">
                    <mxGeometry relative="1" as="geometry"/>
                </mxCell>
                <mxCell id="60" style="edgeStyle=none;html=1;exitX=0;exitY=0.5;exitDx=0;exitDy=0;entryX=0.5;entryY=1;entryDx=0;entryDy=0;" parent="1" source="63" target="65" edge="1">
                    <mxGeometry relative="1" as="geometry"/>
                </mxCell>
                <mxCell id="61" style="edgeStyle=none;html=1;exitX=0;exitY=0.5;exitDx=0;exitDy=0;entryX=0.5;entryY=1;entryDx=0;entryDy=0;" parent="1" source="63" target="64" edge="1">
                    <mxGeometry relative="1" as="geometry"/>
                </mxCell>
                <mxCell id="62" style="edgeStyle=none;html=1;exitX=0;exitY=0.5;exitDx=0;exitDy=0;entryX=0.5;entryY=1;entryDx=0;entryDy=0;" parent="1" source="63" target="73" edge="1">
                    <mxGeometry relative="1" as="geometry">
                        <mxPoint x="770" y="555" as="targetPoint"/>
                    </mxGeometry>
                </mxCell>
                <mxCell id="63" value="" style="ellipse;whiteSpace=wrap;html=1;aspect=fixed;" parent="1" vertex="1">
                    <mxGeometry x="1120" y="930" width="40" height="40" as="geometry"/>
                </mxCell>
                <mxCell id="251" style="edgeStyle=none;html=1;exitX=1;exitY=0;exitDx=0;exitDy=0;entryX=0;entryY=1;entryDx=0;entryDy=0;" parent="1" source="64" target="215" edge="1">
                    <mxGeometry relative="1" as="geometry"/>
                </mxCell>
                <mxCell id="64" value="" style="ellipse;whiteSpace=wrap;html=1;aspect=fixed;" parent="1" vertex="1">
                    <mxGeometry x="1520" y="380" width="30" height="30" as="geometry"/>
                </mxCell>
                <mxCell id="252" style="edgeStyle=none;html=1;exitX=1;exitY=0;exitDx=0;exitDy=0;entryX=0;entryY=1;entryDx=0;entryDy=0;" parent="1" source="65" target="216" edge="1">
                    <mxGeometry relative="1" as="geometry"/>
                </mxCell>
                <mxCell id="65" value="" style="ellipse;whiteSpace=wrap;html=1;aspect=fixed;" parent="1" vertex="1">
                    <mxGeometry x="1655" y="450" width="30" height="30" as="geometry"/>
                </mxCell>
                <mxCell id="253" style="edgeStyle=none;html=1;exitX=1;exitY=0;exitDx=0;exitDy=0;entryX=0;entryY=1;entryDx=0;entryDy=0;" parent="1" source="66" target="217" edge="1">
                    <mxGeometry relative="1" as="geometry"/>
                </mxCell>
                <mxCell id="66" value="" style="ellipse;whiteSpace=wrap;html=1;aspect=fixed;" parent="1" vertex="1">
                    <mxGeometry x="1810" y="510" width="30" height="30" as="geometry"/>
                </mxCell>
                <mxCell id="254" style="edgeStyle=none;html=1;exitX=1;exitY=0;exitDx=0;exitDy=0;entryX=0;entryY=1;entryDx=0;entryDy=0;" parent="1" source="67" target="219" edge="1">
                    <mxGeometry relative="1" as="geometry"/>
                </mxCell>
                <mxCell id="67" value="" style="ellipse;whiteSpace=wrap;html=1;aspect=fixed;" parent="1" vertex="1">
                    <mxGeometry x="1960" y="570" width="30" height="30" as="geometry"/>
                </mxCell>
                <mxCell id="255" style="edgeStyle=none;html=1;exitX=1;exitY=0;exitDx=0;exitDy=0;entryX=0;entryY=1;entryDx=0;entryDy=0;" parent="1" source="68" target="218" edge="1">
                    <mxGeometry relative="1" as="geometry"/>
                </mxCell>
                <mxCell id="68" value="" style="ellipse;whiteSpace=wrap;html=1;aspect=fixed;" parent="1" vertex="1">
                    <mxGeometry x="2065" y="710" width="30" height="30" as="geometry"/>
                </mxCell>
                <mxCell id="256" style="edgeStyle=none;html=1;exitX=1;exitY=0.5;exitDx=0;exitDy=0;entryX=0;entryY=0.5;entryDx=0;entryDy=0;" parent="1" source="69" target="220" edge="1">
                    <mxGeometry relative="1" as="geometry"/>
                </mxCell>
                <mxCell id="69" value="" style="ellipse;whiteSpace=wrap;html=1;aspect=fixed;" parent="1" vertex="1">
                    <mxGeometry x="2170" y="900" width="30" height="30" as="geometry"/>
                </mxCell>
                <mxCell id="250" style="edgeStyle=none;html=1;exitX=0.5;exitY=0;exitDx=0;exitDy=0;entryX=0;entryY=1;entryDx=0;entryDy=0;" parent="1" source="73" target="214" edge="1">
                    <mxGeometry relative="1" as="geometry"/>
                </mxCell>
                <mxCell id="73" value="" style="ellipse;whiteSpace=wrap;html=1;aspect=fixed;" parent="1" vertex="1">
                    <mxGeometry x="1350" y="330" width="30" height="30" as="geometry"/>
                </mxCell>
                <mxCell id="236" style="edgeStyle=none;html=1;exitX=1;exitY=0;exitDx=0;exitDy=0;entryX=0.25;entryY=1;entryDx=0;entryDy=0;" parent="1" source="76" target="199" edge="1">
                    <mxGeometry relative="1" as="geometry"/>
                </mxCell>
                <mxCell id="76" value="" style="ellipse;whiteSpace=wrap;html=1;aspect=fixed;" parent="1" vertex="1">
                    <mxGeometry x="470" y="-1040" width="30" height="30" as="geometry"/>
                </mxCell>
                <mxCell id="237" style="edgeStyle=none;html=1;exitX=0.5;exitY=0;exitDx=0;exitDy=0;entryX=0.25;entryY=1;entryDx=0;entryDy=0;" parent="1" source="77" target="200" edge="1">
                    <mxGeometry relative="1" as="geometry"/>
                </mxCell>
                <mxCell id="77" value="" style="ellipse;whiteSpace=wrap;html=1;aspect=fixed;" parent="1" vertex="1">
                    <mxGeometry x="660" y="-1010" width="30" height="30" as="geometry"/>
                </mxCell>
                <mxCell id="238" style="edgeStyle=none;html=1;exitX=0.5;exitY=0;exitDx=0;exitDy=0;entryX=0.25;entryY=1;entryDx=0;entryDy=0;" parent="1" source="78" target="201" edge="1">
                    <mxGeometry relative="1" as="geometry"/>
                </mxCell>
                <mxCell id="78" value="" style="ellipse;whiteSpace=wrap;html=1;aspect=fixed;" parent="1" vertex="1">
                    <mxGeometry x="760" y="-970" width="30" height="30" as="geometry"/>
                </mxCell>
                <mxCell id="239" style="edgeStyle=none;html=1;exitX=1;exitY=0;exitDx=0;exitDy=0;entryX=0;entryY=1;entryDx=0;entryDy=0;" parent="1" source="79" target="202" edge="1">
                    <mxGeometry relative="1" as="geometry"/>
                </mxCell>
                <mxCell id="79" value="" style="ellipse;whiteSpace=wrap;html=1;aspect=fixed;" parent="1" vertex="1">
                    <mxGeometry x="865" y="-860" width="30" height="30" as="geometry"/>
                </mxCell>
                <mxCell id="240" style="edgeStyle=none;html=1;exitX=1;exitY=0;exitDx=0;exitDy=0;entryX=0;entryY=1;entryDx=0;entryDy=0;" parent="1" source="80" target="203" edge="1">
                    <mxGeometry relative="1" as="geometry"/>
                </mxCell>
                <mxCell id="80" value="" style="ellipse;whiteSpace=wrap;html=1;aspect=fixed;" parent="1" vertex="1">
                    <mxGeometry x="940" y="-750" width="30" height="30" as="geometry"/>
                </mxCell>
                <mxCell id="241" style="edgeStyle=none;html=1;exitX=1;exitY=0;exitDx=0;exitDy=0;entryX=0;entryY=1;entryDx=0;entryDy=0;" parent="1" source="81" target="204" edge="1">
                    <mxGeometry relative="1" as="geometry"/>
                </mxCell>
                <mxCell id="81" value="" style="ellipse;whiteSpace=wrap;html=1;aspect=fixed;" parent="1" vertex="1">
                    <mxGeometry x="1010" y="-640" width="30" height="30" as="geometry"/>
                </mxCell>
                <mxCell id="243" style="edgeStyle=none;html=1;exitX=1;exitY=0;exitDx=0;exitDy=0;entryX=0;entryY=0.75;entryDx=0;entryDy=0;" parent="1" source="82" target="206" edge="1">
                    <mxGeometry relative="1" as="geometry"/>
                </mxCell>
                <mxCell id="82" value="" style="ellipse;whiteSpace=wrap;html=1;aspect=fixed;" parent="1" vertex="1">
                    <mxGeometry x="1360" y="-490" width="30" height="30" as="geometry"/>
                </mxCell>
                <mxCell id="244" style="edgeStyle=none;html=1;exitX=1;exitY=0;exitDx=0;exitDy=0;entryX=0;entryY=0.5;entryDx=0;entryDy=0;" parent="1" source="83" target="208" edge="1">
                    <mxGeometry relative="1" as="geometry"/>
                </mxCell>
                <mxCell id="83" value="" style="ellipse;whiteSpace=wrap;html=1;aspect=fixed;" parent="1" vertex="1">
                    <mxGeometry x="1550" y="-430" width="30" height="30" as="geometry"/>
                </mxCell>
                <mxCell id="245" style="edgeStyle=none;html=1;exitX=1;exitY=0;exitDx=0;exitDy=0;entryX=0;entryY=0.5;entryDx=0;entryDy=0;" parent="1" source="84" target="209" edge="1">
                    <mxGeometry relative="1" as="geometry"/>
                </mxCell>
                <mxCell id="84" value="" style="ellipse;whiteSpace=wrap;html=1;aspect=fixed;" parent="1" vertex="1">
                    <mxGeometry x="1675" y="-370" width="30" height="30" as="geometry"/>
                </mxCell>
                <mxCell id="246" style="edgeStyle=none;html=1;exitX=1;exitY=0;exitDx=0;exitDy=0;entryX=0;entryY=0.75;entryDx=0;entryDy=0;" parent="1" source="85" target="210" edge="1">
                    <mxGeometry relative="1" as="geometry"/>
                </mxCell>
                <mxCell id="85" value="" style="ellipse;whiteSpace=wrap;html=1;aspect=fixed;" parent="1" vertex="1">
                    <mxGeometry x="1785" y="-280" width="30" height="30" as="geometry"/>
                </mxCell>
                <mxCell id="247" style="edgeStyle=none;html=1;exitX=1;exitY=0.5;exitDx=0;exitDy=0;entryX=0;entryY=0.5;entryDx=0;entryDy=0;" parent="1" source="86" target="211" edge="1">
                    <mxGeometry relative="1" as="geometry"/>
                </mxCell>
                <mxCell id="86" value="" style="ellipse;whiteSpace=wrap;html=1;aspect=fixed;" parent="1" vertex="1">
                    <mxGeometry x="1835" y="-200" width="30" height="30" as="geometry"/>
                </mxCell>
                <mxCell id="248" style="edgeStyle=none;html=1;exitX=1;exitY=0;exitDx=0;exitDy=0;entryX=0;entryY=0.5;entryDx=0;entryDy=0;" parent="1" source="87" target="212" edge="1">
                    <mxGeometry relative="1" as="geometry"/>
                </mxCell>
                <mxCell id="87" value="" style="ellipse;whiteSpace=wrap;html=1;aspect=fixed;" parent="1" vertex="1">
                    <mxGeometry x="1865" y="-90" width="30" height="30" as="geometry"/>
                </mxCell>
                <mxCell id="249" style="edgeStyle=none;html=1;exitX=1;exitY=0;exitDx=0;exitDy=0;entryX=0;entryY=0.25;entryDx=0;entryDy=0;" parent="1" source="88" target="213" edge="1">
                    <mxGeometry relative="1" as="geometry"/>
                </mxCell>
                <mxCell id="88" value="" style="ellipse;whiteSpace=wrap;html=1;aspect=fixed;" parent="1" vertex="1">
                    <mxGeometry x="1885" y="20" width="30" height="30" as="geometry"/>
                </mxCell>
                <mxCell id="224" style="edgeStyle=none;html=1;exitX=0;exitY=0;exitDx=0;exitDy=0;entryX=1;entryY=1;entryDx=0;entryDy=0;" parent="1" source="90" target="195" edge="1">
                    <mxGeometry relative="1" as="geometry"/>
                </mxCell>
                <mxCell id="90" value="" style="ellipse;whiteSpace=wrap;html=1;aspect=fixed;" parent="1" vertex="1">
                    <mxGeometry x="-560" y="-810" width="30" height="30" as="geometry"/>
                </mxCell>
                <mxCell id="225" style="edgeStyle=none;html=1;exitX=0;exitY=0;exitDx=0;exitDy=0;entryX=0.5;entryY=1;entryDx=0;entryDy=0;" parent="1" source="91" target="196" edge="1">
                    <mxGeometry relative="1" as="geometry"/>
                </mxCell>
                <mxCell id="91" value="" style="ellipse;whiteSpace=wrap;html=1;aspect=fixed;" parent="1" vertex="1">
                    <mxGeometry x="-370" y="-810" width="30" height="30" as="geometry"/>
                </mxCell>
                <mxCell id="226" style="edgeStyle=none;html=1;exitX=0.5;exitY=0;exitDx=0;exitDy=0;entryX=0.5;entryY=1;entryDx=0;entryDy=0;" parent="1" source="92" target="198" edge="1">
                    <mxGeometry relative="1" as="geometry"/>
                </mxCell>
                <mxCell id="92" value="" style="ellipse;whiteSpace=wrap;html=1;aspect=fixed;" parent="1" vertex="1">
                    <mxGeometry x="-190" y="-810" width="30" height="30" as="geometry"/>
                </mxCell>
                <mxCell id="228" style="edgeStyle=none;html=1;exitX=0.5;exitY=0;exitDx=0;exitDy=0;entryX=0.5;entryY=1;entryDx=0;entryDy=0;" parent="1" source="93" target="197" edge="1">
                    <mxGeometry relative="1" as="geometry"/>
                </mxCell>
                <mxCell id="93" value="" style="ellipse;whiteSpace=wrap;html=1;aspect=fixed;" parent="1" vertex="1">
                    <mxGeometry x="-60" y="-810" width="30" height="30" as="geometry"/>
                </mxCell>
                <mxCell id="235" style="edgeStyle=none;html=1;exitX=0.5;exitY=0;exitDx=0;exitDy=0;entryX=0.5;entryY=1;entryDx=0;entryDy=0;" parent="1" source="94" target="231" edge="1">
                    <mxGeometry relative="1" as="geometry"/>
                </mxCell>
                <mxCell id="94" value="" style="ellipse;whiteSpace=wrap;html=1;aspect=fixed;" parent="1" vertex="1">
                    <mxGeometry x="70" y="-810" width="30" height="30" as="geometry"/>
                </mxCell>
                <mxCell id="222" style="edgeStyle=none;html=1;exitX=0;exitY=0.5;exitDx=0;exitDy=0;entryX=1;entryY=1;entryDx=0;entryDy=0;" parent="1" source="95" target="193" edge="1">
                    <mxGeometry relative="1" as="geometry"/>
                </mxCell>
                <mxCell id="95" value="" style="ellipse;whiteSpace=wrap;html=1;aspect=fixed;" parent="1" vertex="1">
                    <mxGeometry x="-770" y="-570" width="30" height="30" as="geometry"/>
                </mxCell>
                <mxCell id="223" style="edgeStyle=none;html=1;exitX=0;exitY=0;exitDx=0;exitDy=0;entryX=0.75;entryY=1;entryDx=0;entryDy=0;" parent="1" source="96" target="194" edge="1">
                    <mxGeometry relative="1" as="geometry"/>
                </mxCell>
                <mxCell id="96" value="" style="ellipse;whiteSpace=wrap;html=1;aspect=fixed;" parent="1" vertex="1">
                    <mxGeometry x="-695" y="-700" width="30" height="30" as="geometry"/>
                </mxCell>
                <mxCell id="126" value="&lt;span style=&quot;font-family: monospace; font-size: 0px; text-align: start; text-wrap-mode: nowrap;&quot;&gt;%3CmxGraphModel%3E%3Croot%3E%3CmxCell%20id%3D%220%22%2F%3E%3CmxCell%20id%3D%221%22%20parent%3D%220%22%2F%3E%3CmxCell%20id%3D%222%22%20value%3D%22%26lt%3Bfont%20style%3D%26quot%3Bfont-size%3A%2036px%3B%26quot%3B%26gt%3BT-rex%26lt%3B%2Ffont%26gt%3B%22%20style%3D%22text%3Bhtml%3D1%3Balign%3Dcenter%3BverticalAlign%3Dmiddle%3BwhiteSpace%3Dwrap%3Brounded%3D0%3BstrokeColor%3Dnone%3B%22%20vertex%3D%221%22%20parent%3D%221%22%3E%3CmxGeometry%20x%3D%22-105%22%20y%3D%22500%22%20width%3D%22170%22%20height%3D%22130%22%20as%3D%22geometry%22%2F%3E%3C%2FmxCell%3E%3C%2Froot%3E%3C%2FmxGraphModel%3E&lt;/span&gt;&lt;span style=&quot;font-family: monospace; font-size: 0px; text-align: start; text-wrap-mode: nowrap;&quot;&gt;%3CmxGraphModel%3E%3Croot%3E%3CmxCell%20id%3D%220%22%2F%3E%3CmxCell%20id%3D%221%22%20parent%3D%220%22%2F%3E%3CmxCell%20id%3D%222%22%20value%3D%22%26lt%3Bfont%20style%3D%26quot%3Bfont-size%3A%2036px%3B%26quot%3B%26gt%3BT-rex%26lt%3B%2Ffont%26gt%3B%22%20style%3D%22text%3Bhtml%3D1%3Balign%3Dcenter%3BverticalAlign%3Dmiddle%3BwhiteSpace%3Dwrap%3Brounded%3D0%3BstrokeColor%3Dnone%3B%22%20vertex%3D%221%22%20parent%3D%221%22%3E%3CmxGeometry%20x%3D%22-105%22%20y%3D%22500%22%20width%3D%22170%22%20height%3D%22130%22%20as%3D%22geometry%22%2F%3E%3C%2FmxCell%3E%3C%2Froot%3E%3C%2FmxGraphModel%3E&lt;/span&gt;" style="text;html=1;align=center;verticalAlign=middle;whiteSpace=wrap;rounded=0;strokeColor=none;" parent="1" vertex="1">
                    <mxGeometry x="-630" y="485" width="170" height="130" as="geometry"/>
                </mxCell>
                <mxCell id="127" value="&lt;font style=&quot;font-size: 24px;&quot;&gt;Bosque de la semejanza&lt;/font&gt;" style="text;html=1;align=center;verticalAlign=middle;whiteSpace=wrap;rounded=0;strokeColor=none;rotation=-15;" parent="1" vertex="1">
                    <mxGeometry x="-760" y="510" width="460" height="130" as="geometry"/>
                </mxCell>
                <mxCell id="183" style="edgeStyle=none;html=1;exitX=0;exitY=0.5;exitDx=0;exitDy=0;entryX=1;entryY=0.5;entryDx=0;entryDy=0;" parent="1" source="128" target="176" edge="1">
                    <mxGeometry relative="1" as="geometry"/>
                </mxCell>
                <mxCell id="128" value="&lt;font style=&quot;font-size: 24px;&quot;&gt;Prado de la diferencia&lt;/font&gt;" style="text;html=1;align=center;verticalAlign=middle;whiteSpace=wrap;rounded=0;strokeColor=none;rotation=0;" parent="1" vertex="1">
                    <mxGeometry x="-780" y="370" width="460" height="130" as="geometry"/>
                </mxCell>
                <mxCell id="129" value="&lt;font style=&quot;font-size: 24px;&quot;&gt;Pradera del amor&lt;/font&gt;" style="text;html=1;align=center;verticalAlign=middle;whiteSpace=wrap;rounded=0;strokeColor=none;rotation=25;" parent="1" vertex="1">
                    <mxGeometry x="-695" y="290" width="460" height="130" as="geometry"/>
                </mxCell>
                <mxCell id="133" value="&lt;font style=&quot;font-size: 24px;&quot;&gt;Trío frondoso&lt;/font&gt;" style="text;html=1;align=center;verticalAlign=middle;whiteSpace=wrap;rounded=0;strokeColor=none;rotation=45;" parent="1" vertex="1">
                    <mxGeometry x="-608.05" y="219.45" width="405" height="130" as="geometry"/>
                </mxCell>
                <mxCell id="134" value="&lt;font style=&quot;font-size: 24px;&quot;&gt;Rey de la Selva&lt;/font&gt;" style="text;html=1;align=center;verticalAlign=middle;whiteSpace=wrap;rounded=0;strokeColor=none;rotation=60;" parent="1" vertex="1">
                    <mxGeometry x="-560" y="160" width="460" height="130" as="geometry"/>
                </mxCell>
                <mxCell id="135" value="&lt;span style=&quot;color: rgb(63, 63, 63); font-size: 24px;&quot;&gt;Isla solitaria&lt;/span&gt;" style="text;html=1;align=center;verticalAlign=middle;whiteSpace=wrap;rounded=0;strokeColor=none;rotation=75;" parent="1" vertex="1">
                    <mxGeometry x="-393.35" y="163.47" width="370" height="130" as="geometry"/>
                </mxCell>
                <mxCell id="136" value="&lt;span style=&quot;font-size: 24px;&quot;&gt;R ío&lt;/span&gt;" style="text;html=1;align=center;verticalAlign=middle;whiteSpace=wrap;rounded=0;strokeColor=none;rotation=90;" parent="1" vertex="1">
                    <mxGeometry x="-320" y="230" width="380" height="130" as="geometry"/>
                </mxCell>
                <mxCell id="137" value="&lt;font style=&quot;font-size: 24px;&quot;&gt;Bosque de la semejanza&lt;/font&gt;" style="text;html=1;align=center;verticalAlign=middle;whiteSpace=wrap;rounded=0;strokeColor=none;rotation=30;" parent="1" vertex="1">
                    <mxGeometry x="-730" y="-490" width="460" height="130" as="geometry"/>
                </mxCell>
                <mxCell id="138" value="&lt;font style=&quot;font-size: 24px;&quot;&gt;Prado de la diferencia&lt;/font&gt;" style="text;html=1;align=center;verticalAlign=middle;whiteSpace=wrap;rounded=0;strokeColor=none;rotation=45;" parent="1" vertex="1">
                    <mxGeometry x="-640" y="-570" width="460" height="130" as="geometry"/>
                </mxCell>
                <mxCell id="141" value="&lt;font style=&quot;font-size: 24px;&quot;&gt;Pradera del amor&lt;/font&gt;" style="text;html=1;align=center;verticalAlign=middle;whiteSpace=wrap;rounded=0;strokeColor=none;rotation=50;" parent="1" vertex="1">
                    <mxGeometry x="-565" y="-670" width="460" height="130" as="geometry"/>
                </mxCell>
                <mxCell id="142" value="&lt;font style=&quot;font-size: 24px;&quot;&gt;Trío frondoso&lt;/font&gt;" style="text;html=1;align=center;verticalAlign=middle;whiteSpace=wrap;rounded=0;strokeColor=none;rotation=75;" parent="1" vertex="1">
                    <mxGeometry x="-460" y="-710" width="460" height="130" as="geometry"/>
                </mxCell>
                <mxCell id="143" value="&lt;font style=&quot;font-size: 24px;&quot;&gt;Rey de la Selva&lt;/font&gt;" style="text;html=1;align=center;verticalAlign=middle;whiteSpace=wrap;rounded=0;strokeColor=none;rotation=75;" parent="1" vertex="1">
                    <mxGeometry x="-280.76" y="-676.87" width="350" height="130" as="geometry"/>
                </mxCell>
                <mxCell id="144" value="&lt;span style=&quot;color: rgb(63, 63, 63); font-size: 24px;&quot;&gt;Isla solitaria&lt;/span&gt;" style="text;html=1;align=center;verticalAlign=middle;whiteSpace=wrap;rounded=0;strokeColor=none;rotation=90;" parent="1" vertex="1">
                    <mxGeometry x="-210" y="-640" width="380" height="130" as="geometry"/>
                </mxCell>
                <mxCell id="145" value="&lt;span style=&quot;font-size: 24px;&quot;&gt;R ío&lt;/span&gt;" style="text;html=1;align=center;verticalAlign=middle;whiteSpace=wrap;rounded=0;strokeColor=none;rotation=105;" parent="1" vertex="1">
                    <mxGeometry x="-124.62" y="-623.44" width="405" height="130" as="geometry"/>
                </mxCell>
                <mxCell id="146" value="&lt;font style=&quot;font-size: 24px;&quot;&gt;Bosque de la semejanza&lt;/font&gt;" style="text;html=1;align=center;verticalAlign=middle;whiteSpace=wrap;rounded=0;strokeColor=none;rotation=-75;" parent="1" vertex="1">
                    <mxGeometry x="202.24" y="-851.02" width="400" height="130" as="geometry"/>
                </mxCell>
                <mxCell id="148" value="&lt;font style=&quot;font-size: 24px;&quot;&gt;Prado de la diferencia&lt;/font&gt;" style="text;html=1;align=center;verticalAlign=middle;whiteSpace=wrap;rounded=0;strokeColor=none;rotation=-65;" parent="1" vertex="1">
                    <mxGeometry x="290" y="-850" width="460" height="130" as="geometry"/>
                </mxCell>
                <mxCell id="149" value="&lt;font style=&quot;font-size: 24px;&quot;&gt;Pradera del amor&lt;/font&gt;" style="text;html=1;align=center;verticalAlign=middle;whiteSpace=wrap;rounded=0;strokeColor=none;rotation=-50;" parent="1" vertex="1">
                    <mxGeometry x="375" y="-810" width="460" height="130" as="geometry"/>
                </mxCell>
                <mxCell id="150" value="&lt;font style=&quot;font-size: 24px;&quot;&gt;Trío frondoso&lt;/font&gt;" style="text;html=1;align=center;verticalAlign=middle;whiteSpace=wrap;rounded=0;strokeColor=none;rotation=-45;" parent="1" vertex="1">
                    <mxGeometry x="435" y="-740" width="460" height="130" as="geometry"/>
                </mxCell>
                <mxCell id="152" value="&lt;font style=&quot;font-size: 24px;&quot;&gt;Rey de la Selva&lt;/font&gt;" style="text;html=1;align=center;verticalAlign=middle;whiteSpace=wrap;rounded=0;strokeColor=none;rotation=-45;" parent="1" vertex="1">
                    <mxGeometry x="500" y="-680" width="460" height="130" as="geometry"/>
                </mxCell>
                <mxCell id="242" style="edgeStyle=none;html=1;exitX=1;exitY=0.5;exitDx=0;exitDy=0;entryX=0;entryY=1;entryDx=0;entryDy=0;" parent="1" source="154" target="205" edge="1">
                    <mxGeometry relative="1" as="geometry"/>
                </mxCell>
                <mxCell id="154" value="" style="ellipse;whiteSpace=wrap;html=1;aspect=fixed;" parent="1" vertex="1">
                    <mxGeometry x="1050" y="-540" width="30" height="30" as="geometry"/>
                </mxCell>
                <mxCell id="156" value="&lt;span style=&quot;color: rgb(63, 63, 63); font-size: 24px;&quot;&gt;Isla solitaria&lt;/span&gt;" style="text;html=1;align=center;verticalAlign=middle;whiteSpace=wrap;rounded=0;strokeColor=none;rotation=-30;" parent="1" vertex="1">
                    <mxGeometry x="560" y="-620" width="460" height="130" as="geometry"/>
                </mxCell>
                <mxCell id="157" value="&lt;span style=&quot;font-size: 24px;&quot;&gt;R ío&lt;/span&gt;" style="text;html=1;align=center;verticalAlign=middle;whiteSpace=wrap;rounded=0;strokeColor=none;rotation=-15;" parent="1" vertex="1">
                    <mxGeometry x="600" y="-540" width="460" height="130" as="geometry"/>
                </mxCell>
                <mxCell id="158" value="&lt;font style=&quot;font-size: 24px;&quot;&gt;Bosque de la semejanza&lt;/font&gt;" style="text;html=1;align=center;verticalAlign=middle;whiteSpace=wrap;rounded=0;strokeColor=none;rotation=-30;" parent="1" vertex="1">
                    <mxGeometry x="820" y="-360" width="460" height="130" as="geometry"/>
                </mxCell>
                <mxCell id="159" value="&lt;font style=&quot;font-size: 24px;&quot;&gt;Prado de la diferencia&lt;/font&gt;" style="text;html=1;align=center;verticalAlign=middle;whiteSpace=wrap;rounded=0;strokeColor=none;rotation=-30;" parent="1" vertex="1">
                    <mxGeometry x="880" y="-300" width="460" height="130" as="geometry"/>
                </mxCell>
                <mxCell id="160" value="&lt;font style=&quot;font-size: 24px;&quot;&gt;Pradera del amor&lt;/font&gt;" style="text;html=1;align=center;verticalAlign=middle;whiteSpace=wrap;rounded=0;strokeColor=none;rotation=-20;" parent="1" vertex="1">
                    <mxGeometry x="1020" y="-280" width="460" height="130" as="geometry"/>
                </mxCell>
                <mxCell id="161" value="&lt;font style=&quot;font-size: 24px;&quot;&gt;Trío frondoso&lt;/font&gt;" style="text;html=1;align=center;verticalAlign=middle;whiteSpace=wrap;rounded=0;strokeColor=none;rotation=-15;" parent="1" vertex="1">
                    <mxGeometry x="1030" y="-220" width="460" height="130" as="geometry"/>
                </mxCell>
                <mxCell id="162" value="&lt;font style=&quot;font-size: 24px;&quot;&gt;Rey de la Selva&lt;/font&gt;" style="text;html=1;align=center;verticalAlign=middle;whiteSpace=wrap;rounded=0;strokeColor=none;rotation=-15;" parent="1" vertex="1">
                    <mxGeometry x="1170" y="-200" width="460" height="130" as="geometry"/>
                </mxCell>
                <mxCell id="163" value="&lt;span style=&quot;color: rgb(63, 63, 63); font-size: 24px;&quot;&gt;Isla solitaria&lt;/span&gt;" style="text;html=1;align=center;verticalAlign=middle;whiteSpace=wrap;rounded=0;strokeColor=none;rotation=-15;" parent="1" vertex="1">
                    <mxGeometry x="1200" y="-150" width="460" height="130" as="geometry"/>
                </mxCell>
                <mxCell id="164" value="&lt;span style=&quot;font-size: 24px;&quot;&gt;R ío&lt;/span&gt;" style="text;html=1;align=center;verticalAlign=middle;whiteSpace=wrap;rounded=0;strokeColor=none;rotation=0;" parent="1" vertex="1">
                    <mxGeometry x="1240" y="-60" width="460" height="130" as="geometry"/>
                </mxCell>
                <mxCell id="165" value="&lt;font style=&quot;font-size: 24px;&quot;&gt;Bosque de la semejanza&lt;/font&gt;" style="text;html=1;align=center;verticalAlign=middle;whiteSpace=wrap;rounded=0;strokeColor=none;rotation=-60;" parent="1" vertex="1">
                    <mxGeometry x="980" y="550" width="460" height="130" as="geometry"/>
                </mxCell>
                <mxCell id="166" value="&lt;font style=&quot;font-size: 24px;&quot;&gt;Prado de la diferencia&lt;/font&gt;" style="text;html=1;align=center;verticalAlign=middle;whiteSpace=wrap;rounded=0;strokeColor=none;rotation=-55;" parent="1" vertex="1">
                    <mxGeometry x="1095" y="580" width="460" height="130" as="geometry"/>
                </mxCell>
                <mxCell id="170" value="&lt;font style=&quot;font-size: 24px;&quot;&gt;Pradera del amor&lt;/font&gt;" style="text;html=1;align=center;verticalAlign=middle;whiteSpace=wrap;rounded=0;strokeColor=none;rotation=-45;" parent="1" vertex="1">
                    <mxGeometry x="1170" y="610" width="460" height="130" as="geometry"/>
                </mxCell>
                <mxCell id="171" value="&lt;font style=&quot;font-size: 24px;&quot;&gt;Trío frondoso&lt;/font&gt;" style="text;html=1;align=center;verticalAlign=middle;whiteSpace=wrap;rounded=0;strokeColor=none;rotation=-35;" parent="1" vertex="1">
                    <mxGeometry x="1225" y="660" width="460" height="130" as="geometry"/>
                </mxCell>
                <mxCell id="172" value="&lt;font style=&quot;font-size: 24px;&quot;&gt;Rey de la Selva&lt;/font&gt;" style="text;html=1;align=center;verticalAlign=middle;whiteSpace=wrap;rounded=0;strokeColor=none;rotation=-30;" parent="1" vertex="1">
                    <mxGeometry x="1340" y="670" width="460" height="130" as="geometry"/>
                </mxCell>
                <mxCell id="173" value="&lt;span style=&quot;color: rgb(63, 63, 63); font-size: 24px;&quot;&gt;Isla solitaria&lt;/span&gt;" style="text;html=1;align=center;verticalAlign=middle;whiteSpace=wrap;rounded=0;strokeColor=none;rotation=-15;" parent="1" vertex="1">
                    <mxGeometry x="1375" y="745" width="460" height="130" as="geometry"/>
                </mxCell>
                <mxCell id="174" value="&lt;span style=&quot;font-size: 24px;&quot;&gt;R ío&lt;/span&gt;" style="text;html=1;align=center;verticalAlign=middle;whiteSpace=wrap;rounded=0;strokeColor=none;rotation=0;" parent="1" vertex="1">
                    <mxGeometry x="1390" y="840" width="460" height="130" as="geometry"/>
                </mxCell>
                <mxCell id="175" value="" style="whiteSpace=wrap;html=1;aspect=fixed;" parent="1" vertex="1">
                    <mxGeometry x="-940" y="620" width="50" height="50" as="geometry"/>
                </mxCell>
                <mxCell id="176" value="" style="whiteSpace=wrap;html=1;aspect=fixed;" parent="1" vertex="1">
                    <mxGeometry x="-940" y="410" width="50" height="50" as="geometry"/>
                </mxCell>
                <mxCell id="177" value="" style="whiteSpace=wrap;html=1;aspect=fixed;" parent="1" vertex="1">
                    <mxGeometry x="-900" y="200" width="50" height="50" as="geometry"/>
                </mxCell>
                <mxCell id="178" value="" style="whiteSpace=wrap;html=1;aspect=fixed;" parent="1" vertex="1">
                    <mxGeometry x="-610" y="-120" width="50" height="50" as="geometry"/>
                </mxCell>
                <mxCell id="179" value="" style="whiteSpace=wrap;html=1;aspect=fixed;" parent="1" vertex="1">
                    <mxGeometry x="-760" y="20" width="50" height="50" as="geometry"/>
                </mxCell>
                <mxCell id="180" value="" style="whiteSpace=wrap;html=1;aspect=fixed;" parent="1" vertex="1">
                    <mxGeometry x="-390" y="-160" width="50" height="50" as="geometry"/>
                </mxCell>
                <mxCell id="181" value="" style="whiteSpace=wrap;html=1;aspect=fixed;" parent="1" vertex="1">
                    <mxGeometry x="-200" y="-160" width="50" height="50" as="geometry"/>
                </mxCell>
                <mxCell id="193" value="" style="whiteSpace=wrap;html=1;aspect=fixed;" parent="1" vertex="1">
                    <mxGeometry x="-910" y="-650" width="50" height="50" as="geometry"/>
                </mxCell>
                <mxCell id="194" value="" style="whiteSpace=wrap;html=1;aspect=fixed;" parent="1" vertex="1">
                    <mxGeometry x="-800" y="-840" width="50" height="50" as="geometry"/>
                </mxCell>
                <mxCell id="195" value="" style="whiteSpace=wrap;html=1;aspect=fixed;" parent="1" vertex="1">
                    <mxGeometry x="-640" y="-920" width="50" height="50" as="geometry"/>
                </mxCell>
                <mxCell id="196" value="" style="whiteSpace=wrap;html=1;aspect=fixed;" parent="1" vertex="1">
                    <mxGeometry x="-410" y="-980" width="50" height="50" as="geometry"/>
                </mxCell>
                <mxCell id="197" value="" style="whiteSpace=wrap;html=1;aspect=fixed;" parent="1" vertex="1">
                    <mxGeometry x="-80" y="-990" width="50" height="50" as="geometry"/>
                </mxCell>
                <mxCell id="198" value="" style="whiteSpace=wrap;html=1;aspect=fixed;" parent="1" vertex="1">
                    <mxGeometry x="-240" y="-990" width="50" height="50" as="geometry"/>
                </mxCell>
                <mxCell id="199" value="" style="whiteSpace=wrap;html=1;aspect=fixed;" parent="1" vertex="1">
                    <mxGeometry x="580" y="-1290" width="50" height="50" as="geometry"/>
                </mxCell>
                <mxCell id="200" value="" style="whiteSpace=wrap;html=1;aspect=fixed;" parent="1" vertex="1">
                    <mxGeometry x="740" y="-1270" width="50" height="50" as="geometry"/>
                </mxCell>
                <mxCell id="201" value="" style="whiteSpace=wrap;html=1;aspect=fixed;" parent="1" vertex="1">
                    <mxGeometry x="895" y="-1210" width="50" height="50" as="geometry"/>
                </mxCell>
                <mxCell id="202" value="" style="whiteSpace=wrap;html=1;aspect=fixed;" parent="1" vertex="1">
                    <mxGeometry x="1040" y="-1060" width="50" height="50" as="geometry"/>
                </mxCell>
                <mxCell id="203" value="" style="whiteSpace=wrap;html=1;aspect=fixed;" parent="1" vertex="1">
                    <mxGeometry x="1170" y="-940" width="50" height="50" as="geometry"/>
                </mxCell>
                <mxCell id="204" value="" style="whiteSpace=wrap;html=1;aspect=fixed;" parent="1" vertex="1">
                    <mxGeometry x="1290" y="-820" width="50" height="50" as="geometry"/>
                </mxCell>
                <mxCell id="205" value="" style="whiteSpace=wrap;html=1;aspect=fixed;" parent="1" vertex="1">
                    <mxGeometry x="1350" y="-680" width="50" height="50" as="geometry"/>
                </mxCell>
                <mxCell id="206" value="" style="whiteSpace=wrap;html=1;aspect=fixed;" parent="1" vertex="1">
                    <mxGeometry x="1550" y="-590" width="50" height="50" as="geometry"/>
                </mxCell>
                <mxCell id="208" value="" style="whiteSpace=wrap;html=1;aspect=fixed;" parent="1" vertex="1">
                    <mxGeometry x="1750" y="-550" width="50" height="50" as="geometry"/>
                </mxCell>
                <mxCell id="209" value="" style="whiteSpace=wrap;html=1;aspect=fixed;" parent="1" vertex="1">
                    <mxGeometry x="1865" y="-470" width="50" height="50" as="geometry"/>
                </mxCell>
                <mxCell id="210" value="" style="whiteSpace=wrap;html=1;aspect=fixed;" parent="1" vertex="1">
                    <mxGeometry x="1960" y="-350" width="50" height="50" as="geometry"/>
                </mxCell>
                <mxCell id="211" value="" style="whiteSpace=wrap;html=1;aspect=fixed;" parent="1" vertex="1">
                    <mxGeometry x="2040" y="-240" width="50" height="50" as="geometry"/>
                </mxCell>
                <mxCell id="212" value="" style="whiteSpace=wrap;html=1;aspect=fixed;" parent="1" vertex="1">
                    <mxGeometry x="2090" y="-110" width="50" height="50" as="geometry"/>
                </mxCell>
                <mxCell id="213" value="" style="whiteSpace=wrap;html=1;aspect=fixed;" parent="1" vertex="1">
                    <mxGeometry x="2160" y="30" width="50" height="50" as="geometry"/>
                </mxCell>
                <mxCell id="214" value="" style="whiteSpace=wrap;html=1;aspect=fixed;" parent="1" vertex="1">
                    <mxGeometry x="1460" y="140" width="50" height="50" as="geometry"/>
                </mxCell>
                <mxCell id="215" value="" style="whiteSpace=wrap;html=1;aspect=fixed;" parent="1" vertex="1">
                    <mxGeometry x="1650" y="190" width="50" height="50" as="geometry"/>
                </mxCell>
                <mxCell id="216" value="" style="whiteSpace=wrap;html=1;aspect=fixed;" parent="1" vertex="1">
                    <mxGeometry x="1800" y="235" width="50" height="50" as="geometry"/>
                </mxCell>
                <mxCell id="217" value="" style="whiteSpace=wrap;html=1;aspect=fixed;" parent="1" vertex="1">
                    <mxGeometry x="1940" y="349.45" width="50" height="50" as="geometry"/>
                </mxCell>
                <mxCell id="218" value="" style="whiteSpace=wrap;html=1;aspect=fixed;" parent="1" vertex="1">
                    <mxGeometry x="2200" y="580" width="50" height="50" as="geometry"/>
                </mxCell>
                <mxCell id="219" value="" style="whiteSpace=wrap;html=1;aspect=fixed;" parent="1" vertex="1">
                    <mxGeometry x="2090" y="460" width="50" height="50" as="geometry"/>
                </mxCell>
                <mxCell id="220" value="" style="whiteSpace=wrap;html=1;aspect=fixed;" parent="1" vertex="1">
                    <mxGeometry x="2380" y="880" width="50" height="50" as="geometry"/>
                </mxCell>
                <mxCell id="231" value="" style="whiteSpace=wrap;html=1;aspect=fixed;" parent="1" vertex="1">
                    <mxGeometry x="100" y="-990" width="50" height="50" as="geometry"/>
                </mxCell>
                <mxCell id="257" value="&lt;span style=&quot;color: rgb(63, 63, 63); font-size: 36px;&quot;&gt;Máximo 3 dinos, PM 7&lt;/span&gt;" style="text;html=1;align=center;verticalAlign=middle;whiteSpace=wrap;rounded=0;" vertex="1" parent="1">
                    <mxGeometry x="-1260" y="-630" width="280" height="30" as="geometry"/>
                </mxCell>
                <mxCell id="259" value="&lt;span style=&quot;color: rgb(63, 63, 63); font-size: 36px;&quot;&gt;Máximo 6 dinos, PM 21&lt;/span&gt;" style="text;html=1;align=center;verticalAlign=middle;whiteSpace=wrap;rounded=0;" vertex="1" parent="1">
                    <mxGeometry x="-1150" y="-840" width="280" height="30" as="geometry"/>
                </mxCell>
                <mxCell id="260" value="&lt;span style=&quot;color: rgb(63, 63, 63); font-size: 36px;&quot;&gt;Máximo 6 dinos, PM 30&lt;/span&gt;" style="text;html=1;align=center;verticalAlign=middle;whiteSpace=wrap;rounded=0;" vertex="1" parent="1">
                    <mxGeometry x="-910" y="-1020" width="280" height="30" as="geometry"/>
                </mxCell>
                <mxCell id="261" value="&lt;span style=&quot;color: rgb(63, 63, 63); font-size: 36px;&quot;&gt;Máximo 3 dinos, PM 7&lt;/span&gt;" style="text;html=1;align=center;verticalAlign=middle;whiteSpace=wrap;rounded=0;" vertex="1" parent="1">
                    <mxGeometry x="-630" y="-1060" width="280" height="30" as="geometry"/>
                </mxCell>
                <mxCell id="262" value="&lt;span style=&quot;color: rgb(63, 63, 63); font-size: 36px;&quot;&gt;Máximo 1 dino, PM 7&lt;/span&gt;" style="text;html=1;align=center;verticalAlign=middle;whiteSpace=wrap;rounded=0;" vertex="1" parent="1">
                    <mxGeometry x="-360" y="-1070" width="280" height="30" as="geometry"/>
                </mxCell>
                <mxCell id="265" value="&lt;span style=&quot;color: rgb(63, 63, 63); font-size: 36px;&quot;&gt;Máximo 1 dino, PM 7&lt;/span&gt;" style="text;html=1;align=center;verticalAlign=middle;whiteSpace=wrap;rounded=0;" vertex="1" parent="1">
                    <mxGeometry x="-150" y="-1130" width="280" height="30" as="geometry"/>
                </mxCell>
                <mxCell id="266" value="&lt;span style=&quot;color: rgb(63, 63, 63); font-size: 36px;&quot;&gt;Máximo 12 dinos, PM 12&lt;/span&gt;" style="text;html=1;align=center;verticalAlign=middle;whiteSpace=wrap;rounded=0;" vertex="1" parent="1">
                    <mxGeometry x="20" y="-1050" width="280" height="30" as="geometry"/>
                </mxCell>
                <mxCell id="267" value="&lt;span style=&quot;color: rgb(63, 63, 63); font-size: 36px;&quot;&gt;Máximo 3 dinos, PM 7&lt;/span&gt;" style="text;html=1;align=center;verticalAlign=middle;whiteSpace=wrap;rounded=0;" vertex="1" parent="1">
                    <mxGeometry x="460" y="-1360" width="280" height="30" as="geometry"/>
                </mxCell>
                <mxCell id="268" value="&lt;span style=&quot;color: rgb(63, 63, 63); font-size: 36px;&quot;&gt;Máximo 6 dinos, PM 21&lt;/span&gt;" style="text;html=1;align=center;verticalAlign=middle;whiteSpace=wrap;rounded=0;" vertex="1" parent="1">
                    <mxGeometry x="680" y="-1310" width="280" height="30" as="geometry"/>
                </mxCell>
                <mxCell id="269" value="&lt;span style=&quot;color: rgb(63, 63, 63); font-size: 36px;&quot;&gt;Máximo 6 dinos, PM 30&lt;/span&gt;" style="text;html=1;align=center;verticalAlign=middle;whiteSpace=wrap;rounded=0;" vertex="1" parent="1">
                    <mxGeometry x="895" y="-1250" width="280" height="30" as="geometry"/>
                </mxCell>
                <mxCell id="270" value="&lt;span style=&quot;color: rgb(63, 63, 63); font-size: 36px;&quot;&gt;Máximo 3 dinos, PM 7&lt;/span&gt;" style="text;html=1;align=center;verticalAlign=middle;whiteSpace=wrap;rounded=0;" vertex="1" parent="1">
                    <mxGeometry x="1020" y="-1130" width="280" height="30" as="geometry"/>
                </mxCell>
                <mxCell id="271" value="&lt;span style=&quot;color: rgb(63, 63, 63); font-size: 36px;&quot;&gt;Máximo 1 dino, PM 7&lt;/span&gt;" style="text;html=1;align=center;verticalAlign=middle;whiteSpace=wrap;rounded=0;" vertex="1" parent="1">
                    <mxGeometry x="1150" y="-1000" width="280" height="30" as="geometry"/>
                </mxCell>
                <mxCell id="272" value="&lt;span style=&quot;color: rgb(63, 63, 63); font-size: 36px;&quot;&gt;Máximo 1 dino, PM 7&lt;/span&gt;" style="text;html=1;align=center;verticalAlign=middle;whiteSpace=wrap;rounded=0;" vertex="1" parent="1">
                    <mxGeometry x="1275" y="-860" width="280" height="30" as="geometry"/>
                </mxCell>
                <mxCell id="273" value="&lt;span style=&quot;color: rgb(63, 63, 63); font-size: 36px;&quot;&gt;Máximo 12 dinos, PM 12&lt;/span&gt;" style="text;html=1;align=center;verticalAlign=middle;whiteSpace=wrap;rounded=0;" vertex="1" parent="1">
                    <mxGeometry x="1350" y="-730" width="280" height="30" as="geometry"/>
                </mxCell>
                <mxCell id="274" value="&lt;span style=&quot;color: rgb(63, 63, 63); font-size: 36px;&quot;&gt;Máximo 3 dinos, PM 7&lt;/span&gt;" style="text;html=1;align=center;verticalAlign=middle;whiteSpace=wrap;rounded=0;" vertex="1" parent="1">
                    <mxGeometry x="1570" y="-640" width="280" height="30" as="geometry"/>
                </mxCell>
                <mxCell id="275" value="&lt;span style=&quot;color: rgb(63, 63, 63); font-size: 36px;&quot;&gt;Máximo 6 dinos, PM 21&lt;/span&gt;" style="text;html=1;align=center;verticalAlign=middle;whiteSpace=wrap;rounded=0;" vertex="1" parent="1">
                    <mxGeometry x="1770" y="-580" width="280" height="30" as="geometry"/>
                </mxCell>
                <mxCell id="276" value="&lt;span style=&quot;color: rgb(63, 63, 63); font-size: 36px;&quot;&gt;Máximo 6 dinos, PM 30&lt;/span&gt;" style="text;html=1;align=center;verticalAlign=middle;whiteSpace=wrap;rounded=0;" vertex="1" parent="1">
                    <mxGeometry x="1915" y="-493.44000000000005" width="280" height="30" as="geometry"/>
                </mxCell>
                <mxCell id="277" value="&lt;span style=&quot;color: rgb(63, 63, 63); font-size: 36px;&quot;&gt;Máximo 3 dinos, PM 7&lt;/span&gt;" style="text;html=1;align=center;verticalAlign=middle;whiteSpace=wrap;rounded=0;" vertex="1" parent="1">
                    <mxGeometry x="1980" y="-380" width="280" height="30" as="geometry"/>
                </mxCell>
                <mxCell id="278" value="&lt;span style=&quot;color: rgb(63, 63, 63); font-size: 36px;&quot;&gt;Máximo 1 dino, PM 7&lt;/span&gt;" style="text;html=1;align=center;verticalAlign=middle;whiteSpace=wrap;rounded=0;" vertex="1" parent="1">
                    <mxGeometry x="2040" y="-270" width="280" height="30" as="geometry"/>
                </mxCell>
                <mxCell id="279" value="&lt;span style=&quot;color: rgb(63, 63, 63); font-size: 36px;&quot;&gt;Máximo 1 dino, PM 7&lt;/span&gt;" style="text;html=1;align=center;verticalAlign=middle;whiteSpace=wrap;rounded=0;" vertex="1" parent="1">
                    <mxGeometry x="2120" y="-130" width="280" height="30" as="geometry"/>
                </mxCell>
                <mxCell id="280" value="&lt;span style=&quot;color: rgb(63, 63, 63); font-size: 36px;&quot;&gt;Máximo 12 dinos, PM 12&lt;/span&gt;" style="text;html=1;align=center;verticalAlign=middle;whiteSpace=wrap;rounded=0;" vertex="1" parent="1">
                    <mxGeometry x="2210" y="10" width="280" height="30" as="geometry"/>
                </mxCell>
                <mxCell id="281" value="&lt;span style=&quot;color: rgb(63, 63, 63); font-size: 36px;&quot;&gt;Máximo 3 dinos, PM 7&lt;/span&gt;" style="text;html=1;align=center;verticalAlign=middle;whiteSpace=wrap;rounded=0;" vertex="1" parent="1">
                    <mxGeometry x="1430" y="90" width="280" height="30" as="geometry"/>
                </mxCell>
                <mxCell id="282" value="&lt;span style=&quot;color: rgb(63, 63, 63); font-size: 36px;&quot;&gt;Máximo 6 dinos, PM 21&lt;/span&gt;" style="text;html=1;align=center;verticalAlign=middle;whiteSpace=wrap;rounded=0;" vertex="1" parent="1">
                    <mxGeometry x="1630" y="140" width="280" height="30" as="geometry"/>
                </mxCell>
                <mxCell id="283" value="&lt;span style=&quot;color: rgb(63, 63, 63); font-size: 36px;&quot;&gt;Máximo 6 dinos, PM 30&lt;/span&gt;" style="text;html=1;align=center;verticalAlign=middle;whiteSpace=wrap;rounded=0;" vertex="1" parent="1">
                    <mxGeometry x="1825" y="200" width="280" height="30" as="geometry"/>
                </mxCell>
                <mxCell id="284" value="&lt;span style=&quot;color: rgb(63, 63, 63); font-size: 36px;&quot;&gt;Máximo 3 dinos, PM 7&lt;/span&gt;" style="text;html=1;align=center;verticalAlign=middle;whiteSpace=wrap;rounded=0;" vertex="1" parent="1">
                    <mxGeometry x="1960" y="300" width="280" height="30" as="geometry"/>
                </mxCell>
                <mxCell id="286" value="&lt;span style=&quot;color: rgb(63, 63, 63); font-size: 36px;&quot;&gt;Máximo 1 dino, PM 7&lt;/span&gt;" style="text;html=1;align=center;verticalAlign=middle;whiteSpace=wrap;rounded=0;" vertex="1" parent="1">
                    <mxGeometry x="2105" y="415" width="280" height="30" as="geometry"/>
                </mxCell>
                <mxCell id="287" value="&lt;span style=&quot;color: rgb(63, 63, 63); font-size: 36px;&quot;&gt;Máximo 1 dino, PM 7&lt;/span&gt;" style="text;html=1;align=center;verticalAlign=middle;whiteSpace=wrap;rounded=0;" vertex="1" parent="1">
                    <mxGeometry x="2200" y="560" width="280" height="30" as="geometry"/>
                </mxCell>
                <mxCell id="288" value="&lt;span style=&quot;color: rgb(63, 63, 63); font-size: 36px;&quot;&gt;Máximo 12 dinos, PM 12&lt;/span&gt;" style="text;html=1;align=center;verticalAlign=middle;whiteSpace=wrap;rounded=0;" vertex="1" parent="1">
                    <mxGeometry x="2320" y="820" width="280" height="30" as="geometry"/>
                </mxCell>
                <mxCell id="289" value="&lt;span style=&quot;color: rgb(63, 63, 63); font-size: 36px;&quot;&gt;Máximo 3 dinos, PM 7&lt;/span&gt;" style="text;html=1;align=center;verticalAlign=middle;whiteSpace=wrap;rounded=0;" vertex="1" parent="1">
                    <mxGeometry x="-1240" y="630" width="280" height="30" as="geometry"/>
                </mxCell>
                <mxCell id="290" value="&lt;span style=&quot;color: rgb(63, 63, 63); font-size: 36px;&quot;&gt;Máximo 6 dinos, PM 21&lt;/span&gt;" style="text;html=1;align=center;verticalAlign=middle;whiteSpace=wrap;rounded=0;" vertex="1" parent="1">
                    <mxGeometry x="-1230" y="420" width="280" height="30" as="geometry"/>
                </mxCell>
                <mxCell id="291" value="&lt;span style=&quot;color: rgb(63, 63, 63); font-size: 36px;&quot;&gt;Máximo 6 dinos, PM 30&lt;/span&gt;" style="text;html=1;align=center;verticalAlign=middle;whiteSpace=wrap;rounded=0;" vertex="1" parent="1">
                    <mxGeometry x="-1200" y="220" width="280" height="30" as="geometry"/>
                </mxCell>
                <mxCell id="292" value="&lt;span style=&quot;color: rgb(63, 63, 63); font-size: 36px;&quot;&gt;Máximo 3 dinos, PM 7&lt;/span&gt;" style="text;html=1;align=center;verticalAlign=middle;whiteSpace=wrap;rounded=0;" vertex="1" parent="1">
                    <mxGeometry x="-1150" y="10" width="280" height="30" as="geometry"/>
                </mxCell>
                <mxCell id="294" value="&lt;span style=&quot;color: rgb(63, 63, 63); font-size: 36px;&quot;&gt;Máximo 1 dino, PM 7&lt;/span&gt;" style="text;html=1;align=center;verticalAlign=middle;whiteSpace=wrap;rounded=0;" vertex="1" parent="1">
                    <mxGeometry x="-870" y="-170" width="280" height="30" as="geometry"/>
                </mxCell>
                <mxCell id="295" value="&lt;span style=&quot;color: rgb(63, 63, 63); font-size: 36px;&quot;&gt;Máximo 1 dino, PM 7&lt;/span&gt;" style="text;html=1;align=center;verticalAlign=middle;whiteSpace=wrap;rounded=0;" vertex="1" parent="1">
                    <mxGeometry x="-620" y="-230" width="280" height="30" as="geometry"/>
                </mxCell>
                <mxCell id="296" value="&lt;span style=&quot;color: rgb(63, 63, 63); font-size: 36px;&quot;&gt;Máximo 12 dinos, PM 12&lt;/span&gt;" style="text;html=1;align=center;verticalAlign=middle;whiteSpace=wrap;rounded=0;" vertex="1" parent="1">
                    <mxGeometry x="-390" y="-230" width="280" height="30" as="geometry"/>
                </mxCell>
                <mxCell id="300" value="&lt;font style=&quot;font-size: 48px;&quot;&gt;El Bosque de la Semejanza: en este recinto tan solo se pueden poner dinosaurios de la misma especie.&lt;/font&gt;&lt;div&gt;&lt;span style=&quot;font-size: 48px;&quot;&gt;&lt;br&gt;&lt;/span&gt;&lt;div&gt;&lt;font style=&quot;font-size: 48px;&quot;&gt;&amp;nbsp;El Prado de la Diferencia: este recinto puede llegar a albergar dinosaurios de distintas especies, por lo que no podremos repetir.&lt;/font&gt;&lt;/div&gt;&lt;div&gt;&lt;font style=&quot;font-size: 48px;&quot;&gt;&amp;nbsp;&lt;/font&gt;&lt;/div&gt;&lt;div&gt;&lt;font style=&quot;font-size: 48px;&quot;&gt;La Pradera del Amor: se colocan parejas de la misma especie hasta llegar a un máximo de 6 dinosaurios.&lt;/font&gt;&lt;/div&gt;&lt;div&gt;&lt;font style=&quot;font-size: 48px;&quot;&gt;&lt;br&gt;&lt;/font&gt;&lt;/div&gt;&lt;div&gt;&lt;font style=&quot;font-size: 48px;&quot;&gt;&amp;nbsp;El Trío Frondoso: para puntuar hay que colocar exactamente 3 dinosaurios, sean cuales sean.&lt;/font&gt;&lt;/div&gt;&lt;div&gt;&lt;font style=&quot;font-size: 48px;&quot;&gt;&lt;br&gt;&lt;/font&gt;&lt;/div&gt;&lt;div&gt;&lt;font style=&quot;font-size: 48px;&quot;&gt;&amp;nbsp;El Rey de la Selva: nos llevaremos 7 puntos si ponemos un dinosaurio y nuestro parque es el que más dinosaurios tiene de esa especie.&lt;/font&gt;&lt;/div&gt;&lt;div&gt;&lt;font style=&quot;font-size: 48px;&quot;&gt;&lt;br&gt;&lt;/font&gt;&lt;/div&gt;&lt;div&gt;&lt;font style=&quot;font-size: 48px;&quot;&gt;&amp;nbsp;La Isla Solitaria: si queremos conseguir los puntos , el dinosaurio que dejemos en este recinto no puede estar en ningún otro del parque.&lt;/font&gt;&lt;/div&gt;&lt;div&gt;&lt;font style=&quot;font-size: 48px;&quot;&gt;&lt;br&gt;&lt;/font&gt;&lt;/div&gt;&lt;div&gt;&lt;font style=&quot;font-size: 48px;&quot;&gt;&amp;nbsp;Río: no se considera un recinto del zoo pero sí puntuará con 1 punto por dinosaurio al final de la partida.&lt;/font&gt;&lt;/div&gt;&lt;div&gt;&lt;font style=&quot;font-size: 48px;&quot;&gt;&lt;br&gt;&lt;/font&gt;&lt;/div&gt;&lt;div&gt;&lt;font style=&quot;font-size: 48px;&quot;&gt;&amp;nbsp;¡A tener en cuenta! El T-Rex es único y especial, de ahí que por cada recinto que contenga uno de ellos nos llevaremos otro punto adicional.&lt;/font&gt;&lt;/div&gt;&lt;/div&gt;&lt;div&gt;&lt;font style=&quot;font-size: 48px;&quot;&gt;&lt;br&gt;&lt;/font&gt;&lt;/div&gt;&lt;div&gt;&lt;font style=&quot;font-size: 48px;&quot;&gt;&lt;br&gt;&lt;/font&gt;&lt;/div&gt;&lt;div&gt;&lt;font style=&quot;font-size: 48px;&quot;&gt;PM= Puntaje Máximo&lt;/font&gt;&lt;/div&gt;" style="text;html=1;align=center;verticalAlign=middle;whiteSpace=wrap;rounded=0;" vertex="1" parent="1">
                    <mxGeometry x="-1610" y="-2570" width="1530" height="450" as="geometry"/>
                </mxCell>
            </root>
        </mxGraphModel>
    </diagram>
</mxfile>